<svg width="25" height="25" viewBox="0 0 25 25" fill="none" xmlns="http://www.w3.org/2000/svg">
<g clip-path="url(#clip0_600_318)">
<path d="M9.54688 12.1504C8.75575 12.1504 7.98239 12.385 7.3246 12.8245C6.6668 13.264 6.15411 13.8888 5.85136 14.6197C5.54861 15.3506 5.46939 16.1548 5.62374 16.9308C5.77808 17.7067 6.15904 18.4194 6.71845 18.9788C7.27786 19.5382 7.99059 19.9192 8.76652 20.0735C9.54244 20.2279 10.3467 20.1487 11.0776 19.8459C11.8085 19.5432 12.4332 19.0305 12.8728 18.3727C13.3123 17.7149 13.5469 16.9415 13.5469 16.1504V4.15039C13.5469 5.47647 14.0737 6.74824 15.0113 7.68592C15.949 8.62361 17.2208 9.15039 18.5469 9.15039" stroke="black" stroke-width="1.5" stroke-linecap="round" stroke-linejoin="round"/>
</g>
<defs>
<clipPath id="clip0_600_318">
<rect width="24" height="24" fill="white" transform="translate(0.546875 0.150391)"/>
</clipPath>
</defs>
</svg>
