<svg width="25" height="25" viewBox="0 0 25 25" fill="none" xmlns="http://www.w3.org/2000/svg">
<g clip-path="url(#clip0_600_305)">
<path d="M16.5469 4.15039H8.54688C6.33774 4.15039 4.54688 5.94125 4.54688 8.15039V16.1504C4.54688 18.3595 6.33774 20.1504 8.54688 20.1504H16.5469C18.756 20.1504 20.5469 18.3595 20.5469 16.1504V8.15039C20.5469 5.94125 18.756 4.15039 16.5469 4.15039Z" stroke="black" stroke-width="1.5" stroke-linecap="round" stroke-linejoin="round"/>
<path d="M12.5469 15.1504C14.2037 15.1504 15.5469 13.8072 15.5469 12.1504C15.5469 10.4935 14.2037 9.15039 12.5469 9.15039C10.89 9.15039 9.54688 10.4935 9.54688 12.1504C9.54688 13.8072 10.89 15.1504 12.5469 15.1504Z" stroke="black" stroke-width="1.5" stroke-linecap="round" stroke-linejoin="round"/>
<path d="M17.0469 7.65039V7.65139" stroke="black" stroke-width="1.5" stroke-linecap="round" stroke-linejoin="round"/>
</g>
<defs>
<clipPath id="clip0_600_305">
<rect width="24" height="24" fill="white" transform="translate(0.546875 0.150391)"/>
</clipPath>
</defs>
</svg>
