<svg width="25" height="25" viewBox="0 0 25 25" fill="none" xmlns="http://www.w3.org/2000/svg">
<g clip-path="url(#clip0_600_310)">
<path d="M8.54688 20.1504L12.5469 11.1504" stroke="black" stroke-width="1.5" stroke-linecap="round" stroke-linejoin="round"/>
<path d="M11.2469 14.1504C11.6839 15.4134 12.6769 16.1504 13.7969 16.1504C15.8679 16.1504 17.5469 14.5964 17.5469 12.1504C17.5477 11.4202 17.3886 10.6987 17.0808 10.0366C16.773 9.37449 16.3239 8.78783 15.765 8.31786C15.2062 7.8479 14.5512 7.50603 13.8461 7.31629C13.141 7.12655 12.403 7.09355 11.6837 7.21959C10.9645 7.34564 10.2816 7.62768 9.6831 8.0459C9.08456 8.46411 8.58488 9.00834 8.21917 9.64033C7.85347 10.2723 7.63063 10.9768 7.56631 11.7041C7.50199 12.4314 7.59776 13.164 7.84687 13.8504" stroke="black" stroke-width="1.5" stroke-linecap="round" stroke-linejoin="round"/>
<path d="M12.5469 21.1504C17.5174 21.1504 21.5469 17.121 21.5469 12.1504C21.5469 7.17983 17.5174 3.15039 12.5469 3.15039C7.57631 3.15039 3.54688 7.17983 3.54688 12.1504C3.54688 17.121 7.57631 21.1504 12.5469 21.1504Z" stroke="black" stroke-width="1.5" stroke-linecap="round" stroke-linejoin="round"/>
</g>
<defs>
<clipPath id="clip0_600_310">
<rect width="24" height="24" fill="white" transform="translate(0.546875 0.150391)"/>
</clipPath>
</defs>
</svg>
