<svg width="19" height="11" viewBox="0 0 19 11" fill="none" xmlns="http://www.w3.org/2000/svg">
<path fill-rule="evenodd" clip-rule="evenodd" d="M9.52889 10.1504C4.59219 10.1504 1.61852 6.93512 0.634108 5.66127C0.398434 5.35631 0.401419 4.9463 0.640295 4.64383C1.64399 3.37295 4.66828 0.150391 9.52889 0.150391C14.781 0.150391 17.5843 3.40249 18.4726 4.66114C18.6808 4.95618 18.6704 5.33919 18.4509 5.62591C17.4949 6.87447 14.5119 10.1504 9.52889 10.1504ZM3.40798 6.63964C3.04745 6.34802 2.73372 6.05637 2.4673 5.78504C2.12528 5.43672 2.12779 4.88428 2.47169 4.53781C2.74649 4.26096 3.07035 3.96263 3.44209 3.66441C4.84363 2.54003 6.88027 1.45039 9.52889 1.45039C12.4233 1.45039 14.453 2.55336 15.769 3.64932C16.1211 3.9426 16.4221 4.23563 16.6738 4.50701C16.9926 4.85078 16.9837 5.3781 16.6582 5.71548C16.3777 6.00618 16.0414 6.32293 15.6498 6.63964C14.2674 7.75778 12.232 8.85039 9.52889 8.85039C6.82578 8.85039 4.79038 7.75778 3.40798 6.63964ZM17.6852 4.46311L17.6859 4.46186L17.6867 4.46069C17.6868 4.46049 17.6862 4.46145 17.6849 4.46352L17.6852 4.46311ZM11.8351 5.1512C11.8351 6.30704 10.8485 7.32581 9.52875 7.32581C8.20899 7.32581 7.22243 6.30704 7.22243 5.1512C7.22243 3.99537 8.20899 2.9766 9.52875 2.9766C10.8485 2.9766 11.8351 3.99537 11.8351 5.1512ZM13.1351 5.1512C13.1351 7.07018 11.5205 8.62581 9.52875 8.62581C7.53703 8.62581 5.92243 7.07018 5.92243 5.1512C5.92243 3.23223 7.53703 1.6766 9.52875 1.6766C11.5205 1.6766 13.1351 3.23223 13.1351 5.1512Z" fill="black"/>
</svg>
