<svg width="31" height="30" viewBox="0 0 31 30" fill="none" xmlns="http://www.w3.org/2000/svg">
<path fill-rule="evenodd" clip-rule="evenodd" d="M16.3969 8.00039C16.3969 7.53095 16.0163 7.15039 15.5469 7.15039C15.0775 7.15039 14.6969 7.53095 14.6969 8.00039V14.0254L8.6719 14.0254C8.20246 14.0254 7.8219 14.4059 7.8219 14.8754C7.8219 15.3448 8.20246 15.7254 8.6719 15.7254H14.6969V21.7504C14.6969 22.2198 15.0775 22.6004 15.5469 22.6004C16.0163 22.6004 16.3969 22.2198 16.3969 21.7504V15.7254H22.4219C22.8913 15.7254 23.2719 15.3448 23.2719 14.8754C23.2719 14.4059 22.8913 14.0254 22.4219 14.0254L16.3969 14.0254V8.00039Z" fill="black"/>
<rect x="1.6719" y="1.00039" width="27.75" height="27.75" rx="13.875" stroke="black" stroke-width="1.7"/>
</svg>
